<svg width="24" height="24" viewBox="0 0 24 24" fill="none" xmlns="http://www.w3.org/2000/svg">
<g id="Icon button">
<g id="v2">
<path d="M4.5 13.3237C4.77614 13.3237 5 13.5331 5 13.7914V16.1295C5 16.646 5.44772 17.0647 6 17.0647H18C18.5523 17.0647 19 16.646 19 16.1295V13.7914C19 13.5331 19.2239 13.3237 19.5 13.3237C19.7761 13.3237 20 13.5331 20 13.7914V16.1295C20 17.1625 19.1046 18 18 18H6C4.89543 18 4 17.1625 4 16.1295V13.7914C4 13.5331 4.22386 13.3237 4.5 13.3237Z" fill="#A60E12"/>
<path d="M11.6464 15.1508C11.8417 15.3334 12.1583 15.3334 12.3536 15.1508L15.3536 12.345C15.5488 12.1624 15.5488 11.8663 15.3536 11.6837C15.1583 11.5011 14.8417 11.5011 14.6464 11.6837L12.5 13.6912V5.46763C12.5 5.20936 12.2761 5 12 5C11.7239 5 11.5 5.20936 11.5 5.46763V13.6912L9.35355 11.6837C9.15829 11.5011 8.84171 11.5011 8.64645 11.6837C8.45118 11.8663 8.45118 12.1624 8.64645 12.345L11.6464 15.1508Z" fill="#A60E12"/>
</g>
</g>
</svg>
