<svg width="608" height="724" viewBox="0 0 608 724" fill="none" xmlns="http://www.w3.org/2000/svg">
<path d="M671.158 0C694.773 0 720.113 2.84709 746.436 8.48928C773.251 14.177 795.191 23.2513 811.805 35.4782L816 38.5658L759.617 186.459H739.817L740.599 178.866C742.629 159.112 743.068 139.456 741.969 120.54C740.87 101.988 737.58 85.1203 732.047 70.5078C728.349 60.6795 723.501 52.0732 717.495 44.7735C715.963 42.9079 714.353 41.1268 712.666 39.4433C699.156 27.4959 685.929 23.2578 669.361 23.2578C653.232 23.2578 638.881 25.7473 626.651 30.59C620.833 32.9366 615.364 35.5887 610.238 38.5723C610.147 38.6113 609.313 39.0013 607.917 39.7293C606.979 40.2103 605.803 40.8408 604.413 41.6209C603.185 42.3034 601.801 43.1159 600.289 44.0324C585.059 53.2822 556.757 74.1609 547.591 105.921C546.524 109.821 545.923 112.636 545.49 115.483C544.229 124.83 544.404 132.877 545.8 141.081C548.664 157.097 555.587 172.912 566.687 189.143C577.101 203.645 586.177 214.143 596.792 224.641C655.844 282.785 680.092 356.725 665.728 433.519C665.211 436.307 664.636 439.076 664.021 441.852C663.821 442.749 663.614 443.652 663.407 444.562C661.371 453.24 658.876 461.827 655.922 470.329C639.276 516.897 610.806 558.7 571.121 596.414C562.537 604.546 554.075 611.969 545.167 619.217C543.57 620.51 541.96 621.797 540.338 623.091C528.876 632.165 516.704 640.953 503.859 649.43C492.954 656.599 482.695 662.885 472.041 668.982C467.994 671.296 463.89 673.591 459.72 675.859C452.338 679.864 444.774 683.796 437.049 687.631C431.871 690.179 427.631 692.221 423.345 694.229C422.575 694.6 421.813 694.957 421.037 695.315C368.003 714.38 309.054 724 245.644 724C202.275 724 164.05 718.423 131.896 707.49C99.5484 696.472 72.8762 681.554 52.5779 663.191C50.8972 661.676 49.2552 660.135 47.6521 658.575C29.0862 640.186 16.4871 620.822 8.82029 599.625C0.254931 575.828 -2.10458 551.432 1.88396 526.985C5.66565 503.337 15.1102 480.08 29.8038 457.829C44.3487 435.729 63.199 415.715 85.7146 398.45C108.224 381.14 134.392 367.125 163.52 356.79C192.649 346.409 224.228 341.125 257.274 341.125C290.818 341.125 320.321 345.122 345.041 353.007C369.91 360.937 390.641 371.962 406.46 385.684C409.317 388.154 412.026 390.728 414.585 393.393C425.336 404.56 433.371 417.32 438.62 431.517C443.856 447.618 445.77 459.623 446.015 472.13C446.035 473.209 446.041 474.294 446.041 475.393C446.015 482.036 445.524 488.816 444.561 495.726C444.393 496.941 444.212 498.163 444.011 499.385C440.579 519.62 433.681 538.23 423.345 556.262C413.383 573.546 400.499 589.173 384.978 602.615C383.976 603.486 382.955 604.357 381.927 605.209C365.036 619.282 344.634 630.254 321.33 637.879C303.688 643.625 284.521 646.511 264.178 646.511C257.578 646.511 250.835 646.212 243.989 645.614L241.358 645.367L242.27 631.6H244.901C269.608 631.6 292.557 627.55 313.185 619.62C333.812 611.637 351.874 601.062 366.826 588.139C381.817 575.165 394.1 560.598 403.35 544.783C412.614 529.007 418.542 513.101 421.095 497.435C424.217 478.474 423.015 460.663 417.682 444.595C413.797 433.044 407.772 422.52 399.653 413.166C398.657 412.009 397.629 410.878 396.563 409.773C394.294 407.381 391.869 405.067 389.303 402.844C375.618 390.968 357.408 381.484 335.112 374.698C312.564 367.866 285.743 364.415 255.419 364.415C227.686 364.415 200.872 369.212 175.712 378.696C150.462 388.271 127.526 400.946 107.558 416.365C87.6862 431.777 71.0791 449.633 58.1309 469.504C53.1597 477.102 48.9062 484.766 45.3572 492.45C44.0772 495.251 43.0171 497.734 42.028 500.211C39.2871 507.153 37.2249 513.731 35.6864 520.296C35.0529 523.091 34.6327 525.133 34.2707 527.187C33.3075 533.316 32.9843 536.176 32.758 539.024C32.2732 545.634 32.2732 551.549 32.7063 557.432C33.5338 567.572 35.3503 576.705 38.2269 585.721C38.7699 587.437 39.3582 589.134 39.9723 590.843C45.842 604.461 46.5208 605.8 47.2254 607.12C52.5844 617.176 59.3397 626.653 67.4849 635.526C72.0423 640.31 74.2014 642.435 76.451 644.522C95.7473 661.988 119.149 675.307 147.34 685.434C175.622 695.562 209.34 700.755 247.441 700.755C258.651 700.755 272.944 699.956 289.829 698.454C306.455 696.959 324.336 693.761 343.011 688.97C361.642 684.134 380.932 677.452 400.221 669.015C410.067 664.731 419.763 659.589 429.072 653.746C437.489 648.559 445.556 642.669 453.075 636.481C469.016 623.162 483.141 606.554 495.093 587.047C507.04 567.683 515.243 544.386 519.593 517.742C524.293 488.712 524.319 463.062 519.619 441.559C515.876 424.594 510.543 408.629 503.717 394.257C501.803 390.065 499.935 386.425 498.015 383.083C488.377 365.669 477.387 349.406 465.454 334.689C453.172 319.57 441.633 304.249 431.193 289.09C420.546 273.613 411.993 257.252 405.975 240.54C399.653 223.224 398.314 203.268 401.844 181.213C405.425 159.606 413.564 137.655 426.273 116.061C438.93 94.4546 456.443 74.8954 478.409 57.7739C500.323 40.7693 527.629 26.7484 559.582 16.0685C591.491 5.38867 629.075 0 671.158 0Z" fill="#A60E12" fill-opacity="0.02"/>
</svg>
