<svg width="12" height="14" viewBox="0 0 12 14" fill="none" xmlns="http://www.w3.org/2000/svg">
<g id="Frame 1000001859">
<path id="Vector" fill-rule="evenodd" clip-rule="evenodd" d="M1.62839 0.00546875L7.64539 0L9.75797 1.94687C10.9172 3.01602 11.897 3.93203 12 4.07422V8.19766C12 12.2281 11.9971 12.3238 11.9382 12.5645C11.9058 12.6984 11.8411 12.8844 11.797 12.9746C11.7499 13.0648 11.6499 13.2125 11.5704 13.3027C11.4939 13.393 11.3674 13.516 11.2909 13.5762C11.2144 13.6363 11.0732 13.7266 10.979 13.7758C10.8849 13.825 10.7024 13.8934 10.3376 14H1.65781L1.42243 13.9316C1.29297 13.8934 1.11055 13.825 1.01639 13.7758C0.922238 13.7266 0.781008 13.6363 0.704508 13.5762C0.628008 13.516 0.510316 13.4066 0.442643 13.3301C0.377913 13.2563 0.274932 13.1086 0.219028 13.002C0.160182 12.8953 0.086625 12.6984 0.0542596 12.5645C-0.00458637 12.3211 -0.00458637 12.2719 0.00424054 6.93164C0.0130674 1.87852 0.0160097 1.53398 0.0630865 1.36719C0.0925096 1.26875 0.154298 1.11563 0.201375 1.02539C0.245509 0.935156 0.345547 0.7875 0.42499 0.697266C0.501489 0.607031 0.630951 0.48125 0.713335 0.415625C0.795719 0.352734 0.942834 0.259766 1.03993 0.213281C1.13703 0.164062 1.31062 0.0984375 1.42243 0.065625L1.62839 0.00546875ZM1.44008 0.836719C1.31062 0.891406 1.2047 0.965234 1.10172 1.06641C1.01051 1.15664 0.919296 1.28242 0.878104 1.38086L0.804546 1.54492V12.4551C0.919296 12.7176 1.01051 12.8434 1.10172 12.9336C1.19587 13.0293 1.31356 13.1113 1.42537 13.1605C1.51953 13.2016 1.67841 13.2453 1.77551 13.2617C1.89026 13.2809 3.39966 13.2891 5.99771 13.2891C8.59576 13.2891 10.1052 13.2809 10.2199 13.2617C10.317 13.2453 10.4759 13.2016 10.57 13.1605C10.6818 13.1113 10.7995 13.0293 10.8937 12.9336C10.9849 12.8434 11.0761 12.7176 11.1173 12.6191L11.1909 12.4551L11.2056 4.48438C8.41039 4.48438 7.96316 4.47617 7.86607 4.45156C7.79251 4.43242 7.66305 4.375 7.58067 4.32031C7.49828 4.26836 7.38353 4.16445 7.33057 4.08789C7.27467 4.01406 7.21582 3.91016 7.19817 3.85547C7.17463 3.78984 7.16286 3.29766 7.15992 2.23672L7.15697 0.710938C3.07894 0.716406 1.83435 0.727344 1.76079 0.738281C1.68724 0.749219 1.54306 0.792969 1.44008 0.836719ZM7.93962 3.69141C8.0632 3.76797 8.25739 3.77344 9.33133 3.77344C10.0228 3.77344 10.5936 3.76523 10.5995 3.7543C10.6083 3.74336 10.2876 3.43164 9.88743 3.0625C9.48728 2.69609 8.88705 2.14102 8.54868 1.83203L7.93962 1.27148V3.69141ZM7.0128 5.10781C7.07753 5.11328 7.17757 5.13242 7.23347 5.14883C7.28938 5.1625 7.3953 5.20352 7.46886 5.23906C7.54241 5.27188 7.66305 5.35938 7.73661 5.4332C7.81311 5.50703 7.9102 5.62734 7.95139 5.70117C7.99259 5.77773 8.04261 5.91992 8.06026 6.01562C8.08674 6.15234 8.08674 6.23711 8.06026 6.37109C8.03966 6.46953 7.98964 6.61172 7.94845 6.68555C7.90726 6.76211 7.81311 6.88242 7.73661 6.95352C7.66305 7.02734 7.51593 7.12578 7.41001 7.17227C7.23347 7.2543 7.19817 7.25977 6.90982 7.25977C6.62442 7.25977 6.58617 7.2543 6.40963 7.175C6.30076 7.12852 6.15659 7.03555 6.07421 6.95625C5.99476 6.88242 5.90355 6.77305 5.87119 6.71289C5.83882 6.65273 5.79469 6.54336 5.77409 6.4668C5.75055 6.39297 5.7329 6.26992 5.7329 6.19336C5.7329 6.11953 5.75055 5.99648 5.77409 5.91992C5.79469 5.84609 5.83882 5.73398 5.87119 5.67383C5.90355 5.61367 5.98888 5.50977 6.06244 5.44141C6.13305 5.37578 6.25074 5.28828 6.32136 5.25C6.39492 5.21172 6.51261 5.16523 6.58617 5.14609C6.65972 5.12969 6.75682 5.11055 6.80684 5.10781C6.85392 5.10234 6.94807 5.10234 7.0128 5.10781ZM6.54792 6.02383C6.52144 6.07305 6.4979 6.14961 6.4979 6.19336C6.4979 6.23984 6.53026 6.32188 6.56557 6.3793C6.60088 6.43672 6.67444 6.49961 6.72446 6.52422C6.77742 6.54609 6.8598 6.5625 6.90982 6.5625C6.9569 6.5625 7.0334 6.54609 7.07753 6.52422C7.12461 6.50508 7.18345 6.46406 7.20993 6.43672C7.23936 6.40937 7.27466 6.34375 7.29232 6.28906C7.30997 6.22891 7.30997 6.16055 7.29232 6.09766C7.27761 6.0457 7.22465 5.96641 7.17463 5.91992C7.10107 5.8543 7.05105 5.83789 6.93042 5.82969C6.81567 5.82422 6.75682 5.83516 6.68915 5.87891C6.63913 5.90898 6.57734 5.97461 6.54792 6.02383ZM4.81196 6.78125C4.85021 6.78125 4.92377 6.79766 4.97379 6.81953C5.05323 6.84687 5.23271 7.06836 5.92415 7.97891C6.39197 8.59961 6.78624 9.10273 6.79507 9.1C6.8039 9.09453 6.99809 8.89492 7.22465 8.6543C7.4512 8.41367 7.67188 8.20312 7.71307 8.18398C7.7572 8.16484 7.82782 8.14844 7.87195 8.14844C7.91903 8.14844 7.99259 8.17305 8.04261 8.20039C8.09262 8.22773 8.45747 8.6543 8.88705 9.19023C9.30191 9.70703 9.66381 10.1773 9.68735 10.2348C9.71972 10.3031 9.72854 10.3687 9.71383 10.4398C9.70206 10.4945 9.65793 10.5766 9.61674 10.6203C9.57554 10.6641 9.49904 10.7188 9.44608 10.7379C9.36958 10.768 8.69285 10.7734 2.24627 10.7734L2.11681 10.7133C2.01972 10.6668 1.9697 10.6203 1.93145 10.541C1.90202 10.4809 1.87849 10.4043 1.87849 10.3715C1.87849 10.3359 1.89614 10.2703 1.91674 10.2211C1.94027 10.1719 2.5405 9.39805 3.25254 8.50117C4.25586 7.24062 4.57363 6.86055 4.64719 6.82773C4.70309 6.80312 4.77665 6.78398 4.81196 6.78125ZM3.07306 10.0434C3.07894 10.0543 3.84688 10.0625 4.77665 10.0625C5.8859 10.0625 6.46847 10.0543 6.46847 10.0352C6.46847 10.0215 6.10363 9.52656 5.65934 8.93594C5.21211 8.34531 4.83844 7.85859 4.82667 7.85586C4.81196 7.85039 4.41181 8.33711 3.93221 8.93594C3.45556 9.53203 3.06718 10.0324 3.07306 10.0434ZM7.2629 9.76172L7.45415 10.0652C8.27799 10.0625 8.52809 10.057 8.53691 10.0488C8.54868 10.0434 8.40157 9.83828 8.21032 9.59766C8.02201 9.35703 7.85724 9.16016 7.84547 9.16016C7.83665 9.16016 7.69836 9.29688 7.54536 9.46094L7.2629 9.76172Z" fill="#A60E12"/>
</g>
</svg>
